<svg width="66" height="66" viewBox="0 0 66 66" fill="none" xmlns="http://www.w3.org/2000/svg">
<g filter="url(#filter0_d_2157_15593)">
<rect x="4" y="4" width="58" height="58" rx="12" fill="#FEFEFE" shape-rendering="crispEdges"/>
<rect x="5" y="5" width="56" height="56" rx="11" stroke="#8914FF" stroke-width="2" shape-rendering="crispEdges"/>
<path d="M32.2 45.7972H24.2C22.4327 45.7972 21 44.3645 21 42.5972L21.0001 23.3972C21.0001 21.6299 22.4328 20.1973 24.2001 20.1973H38.6005C40.3678 20.1973 41.8005 21.63 41.8005 23.3973V29.7973M43.4 43.3973L45 44.9973M26.6005 26.5973H36.2005M26.6005 31.3973H36.2005M26.6005 36.1973H31.4005M44.2 40.1973C44.2 42.4064 42.4091 44.1973 40.2 44.1973C37.9909 44.1973 36.2 42.4064 36.2 40.1973C36.2 37.9881 37.9909 36.1973 40.2 36.1973C42.4091 36.1973 44.2 37.9881 44.2 40.1973Z" stroke="#8914FF" stroke-width="2.6" stroke-linecap="round" stroke-linejoin="round"/>
</g>
<defs>
<filter id="filter0_d_2157_15593" x="0" y="0" width="66" height="66" filterUnits="userSpaceOnUse" color-interpolation-filters="sRGB">
<feFlood flood-opacity="0" result="BackgroundImageFix"/>
<feColorMatrix in="SourceAlpha" type="matrix" values="0 0 0 0 0 0 0 0 0 0 0 0 0 0 0 0 0 0 127 0" result="hardAlpha"/>
<feOffset/>
<feGaussianBlur stdDeviation="2"/>
<feComposite in2="hardAlpha" operator="out"/>
<feColorMatrix type="matrix" values="0 0 0 0 0 0 0 0 0 0 0 0 0 0 0 0 0 0 0.25 0"/>
<feBlend mode="normal" in2="BackgroundImageFix" result="effect1_dropShadow_2157_15593"/>
<feBlend mode="normal" in="SourceGraphic" in2="effect1_dropShadow_2157_15593" result="shape"/>
</filter>
</defs>
</svg>
